<svg width="205.7951911728363" height="327.359375" viewBox="0 0 198.38984482580952 315.57965586270853" class="css-1j8o68f"><defs id="SvgjsDefs2444"></defs><g id="SvgjsG2445" featurekey="symbolFeature-0" transform="matrix(1.418464196744876,0,0,1.418464196744876,30.092714213200594,-37.42611592914207)" fill="#ffffff"><title xmlns="http://www.w3.org/2000/svg">28-08-2015 - code</title><desc xmlns="http://www.w3.org/2000/svg">Created with Sketch.</desc><g xmlns="http://www.w3.org/2000/svg" stroke="none" stroke-width="1" fill="none" fill-rule="evenodd" xmlnssketch="http://www.bohemiancoding.com/sketch/ns" sketchtype="MSPage"><g sketchtype="MSArtboardGroup" fill="#ffffff"><path d="M83.9420361,50.0031761 C84.0455988,49.2560782 83.807666,48.4723838 83.2325201,47.8972379 L68.0203173,32.6850351 C67.0506811,31.7153989 65.4688221,31.7109131 64.4959279,32.6838072 C63.5162509,33.6634843 63.5235834,35.2346243 64.4971558,36.2081966 L78.2881642,49.9992051 L64.4995875,63.7877818 C63.5299513,64.757418 63.5254654,66.339277 64.4983596,67.3121712 C65.4780367,68.2918482 67.0491767,68.2845157 68.022749,67.3109433 L83.2349518,52.0987406 C83.8046831,51.5290093 84.0412048,50.7479135 83.9420361,50.0031761 L83.9420361,50.0031761 Z M14.0579639,50.0031761 C13.9544012,49.2560782 14.192334,48.4723838 14.7674799,47.8972379 L29.9796827,32.6850351 C30.9493189,31.7153989 32.5311779,31.7109131 33.5040721,32.6838072 C34.4837491,33.6634843 34.4764166,35.2346243 33.5028442,36.2081966 L19.7118358,49.9992051 L33.5004125,63.7877818 C34.4700487,64.757418 34.4745346,66.339277 33.5016404,67.3121712 C32.5219633,68.2918482 30.9508233,68.2845157 29.977251,67.3109433 L14.7650482,52.0987406 C14.1953169,51.5290093 13.9587952,50.7479135 14.0579639,50.0031761 L14.0579639,50.0031761 Z M54.9901856,27.6944914 C55.3662544,26.661251 56.5053113,26.1272656 57.5505036,26.5076845 C58.5884594,26.8854695 59.1258109,28.0271719 58.7489561,29.062572 L43.0098144,72.3055086 C42.6337456,73.338749 41.4946887,73.8727344 40.4494964,73.4923155 C39.4115406,73.1145305 38.8741891,71.9728281 39.2510439,70.937428 L54.9901856,27.6944914 Z" sketchtype="MSShapeGroup"></path></g></g></g><g id="SvgjsG2446" featurekey="nameFeature-0" transform="matrix(8.367345285941601,0,0,8.367345285941601,-31.879585060654165,-22.37747098750654)" fill="#ffffff"><path d="M6.12 40.36 c-0.16 -0.04 -0.36 0 -0.52 0 c-0.52 -0.04 -1 -0.16 -1.52 -0.16 c-0.16 0 -0.24 -0.12 -0.24 -0.28 c0.04 -0.16 0.04 -0.28 0 -0.4 c-0.04 -0.04 -0.04 -0.08 0 -0.08 c0.24 -0.04 0.28 -0.24 0.28 -0.4 c0.04 -0.48 0.12 -0.92 0.32 -1.36 c0.12 -0.32 0.16 -0.64 0.2 -0.96 c0.04 -0.36 0.2 -0.68 0.32 -1 c0.2 -0.64 0.44 -1.24 0.64 -1.84 c0.2 -0.64 0.24 -1.32 0.44 -1.96 c0.08 -0.36 0.16 -0.76 0.32 -1.08 c0.16 -0.28 0.2 -0.64 0.32 -0.92 c0.08 -0.16 0.16 -0.36 0.24 -0.52 c0.12 -0.16 0.2 -0.32 0.2 -0.52 c0.08 -0.52 0.36 -0.96 0.52 -1.44 c0.28 -0.92 0.6 -1.88 0.88 -2.8 c0.12 -0.48 0.36 -0.96 0.44 -1.48 c0.08 -0.24 0.12 -0.56 0.24 -0.76 c0.16 -0.24 0.16 -0.52 0.28 -0.76 s0.16 -0.48 0.2 -0.76 s0.16 -0.56 0.24 -0.84 c0.04 -0.08 0.08 -0.2 0.12 -0.28 c0.12 -0.2 0.08 -0.44 0.2 -0.68 c0.04 0 0.04 -0.08 0.08 -0.08 c0.16 -0.04 0.08 -0.24 0.2 -0.32 c0.04 0 0 -0.04 0 -0.04 c-0.04 -0.04 -0.12 -0.04 -0.08 -0.12 c0.04 -0.04 0.12 0 0.16 0 s0.12 0.04 0.16 -0.04 c0 -0.08 -0.08 -0.04 -0.12 -0.08 c-0.08 -0.04 -0.08 -0.28 0 -0.32 c0.2 -0.04 0.16 -0.24 0.16 -0.36 c0.04 -0.12 0.04 -0.24 0.16 -0.32 c0.04 -0.04 0.08 -0.04 0.04 -0.12 c-0.08 -0.24 -0.04 -0.44 0.16 -0.64 c0.12 -0.16 0.2 -0.36 0.2 -0.6 c0 -0.04 0 -0.12 0.04 -0.16 c0 -0.04 0.04 -0.08 0.04 -0.16 c-0.04 -0.04 -0.16 -0.16 0.04 -0.08 c0.04 0 0.12 -0.08 0.08 -0.12 c-0.08 -0.08 -0.08 -0.16 -0.12 -0.24 c-0.08 -0.2 0.04 -0.24 0.2 -0.24 s0.28 -0.08 0.36 -0.28 c0.04 -0.12 0.04 -0.2 -0.08 -0.24 c-0.24 -0.12 -0.4 -0.36 -0.6 -0.56 c-0.04 -0.04 -0.12 -0.12 0 -0.16 c0.28 -0.12 0.6 -0.24 0.96 -0.28 c0.2 0.04 0.44 0.04 0.68 0 c0.12 -0.04 0.24 -0.08 0.28 -0.24 c0 0 0 -0.04 0.04 -0.08 s0.08 -0.16 0.16 -0.12 s0 0.12 0 0.2 c-0.04 0.24 0 0.28 0.24 0.24 c0.2 -0.04 0.4 -0.12 0.64 -0.16 c0.16 -0.04 0.36 -0.12 0.48 0.04 c0 0.04 0.04 0.04 0.04 0 c0.16 -0.12 0.32 -0.08 0.48 -0.08 c0.36 0 0.72 -0.04 1.08 -0.08 c0.32 -0.04 0.64 0.12 0.96 0.12 c0.24 0 0.48 0.08 0.72 0.12 c0.08 0 0.16 0 0.24 -0.04 l0.12 0 c0.32 0.2 0.72 0.12 1 0.36 c0.12 0.04 0.12 0.08 0.04 0.16 s-0.16 0.16 -0.24 0.2 s-0.24 0.12 -0.2 0.16 c0.12 0.24 -0.04 0.48 0.08 0.64 c0.04 0.08 0.04 0.24 0.2 0.12 c0.04 -0.04 0.08 0 0.12 0.04 c0 0.04 -0.04 0.08 -0.08 0.08 c-0.04 0.04 -0.12 0.08 -0.08 0.16 s0.12 0.2 0.2 0.16 c0.2 -0.08 0.16 0.08 0.16 0.16 s0.04 0.12 0.08 0.2 c0.08 0.16 0.12 0.32 0.2 0.48 c0.24 0.68 0.44 1.4 0.68 2.08 c0.16 0.56 0.36 1.08 0.44 1.68 c0.04 0.12 0.08 0.28 0.16 0.4 c0 0.08 0.08 0.16 0.04 0.28 c-0.04 0.04 0.04 0.04 0.04 0.08 c0.08 0.12 0.16 0.2 0.12 0.36 c-0.04 0.08 0.08 0.12 0.12 0.2 c0.16 0.32 0.24 0.68 0.36 1 c0.04 0.12 0.08 0.24 0.12 0.32 c0.08 0.12 -0.04 0.2 0.08 0.32 c0.08 0.04 0.08 0.24 0.12 0.36 s0.08 0.24 0.16 0.36 c0.04 0.12 0.08 0.24 0.12 0.4 c0.16 0.44 0.32 0.92 0.44 1.36 c0.24 0.84 0.52 1.68 0.76 2.48 c0.12 0.52 0.32 1 0.48 1.48 c0.08 0.32 0.16 0.68 0.32 1.04 s0.28 0.8 0.4 1.2 s0.28 0.76 0.44 1.12 c0.2 0.56 0.36 1.12 0.48 1.64 c0.16 0.52 0.28 1 0.44 1.52 c0.08 0.4 0.16 0.8 0.28 1.24 c0.12 0.48 0.2 0.92 0.28 1.4 c0 0.16 0.16 0.2 0.28 0.24 c0.08 0.04 0.2 0.08 0.28 0.08 c0.16 0 0.16 0.08 0.16 0.2 s-0.04 0.2 -0.16 0.24 c-0.24 0.08 -0.44 0.16 -0.68 0.24 l-0.24 0.12 c-0.08 0.08 -0.12 0.08 -0.24 0.04 c-0.2 -0.08 -0.4 -0.04 -0.56 0 c-0.36 0.04 -0.68 0.08 -1.04 0.08 c-0.12 0 -0.24 -0.08 -0.4 0 c-0.04 0 -0.04 -0.04 -0.04 -0.04 c0.04 -0.12 -0.04 -0.16 -0.08 -0.16 c-0.08 0 -0.16 0.04 -0.24 0.08 c0 0 0 0.12 -0.08 0.04 c-0.04 -0.04 -0.2 -0.04 -0.12 -0.2 c0.04 -0.04 0.04 -0.12 -0.04 -0.12 c-0.08 -0.04 -0.12 0.04 -0.08 0.08 c0 0.12 -0.04 0.12 -0.08 0.08 c-0.08 -0.08 -0.16 -0.08 -0.24 0 c-0.12 0.2 -0.28 0.12 -0.4 0.08 c-0.32 -0.08 -0.64 -0.2 -0.96 -0.28 c-0.24 -0.08 -0.52 -0.4 -0.44 -0.64 c0 -0.12 -0.12 -0.2 0 -0.24 c0.08 -0.04 0.16 0.08 0.2 0.08 c0.12 -0.08 0.24 -0.08 0.36 -0.12 l0.04 -0.04 l-0.08 0 c-0.08 0.04 -0.12 0 -0.12 -0.08 s0.04 -0.08 0.12 -0.08 l0.04 -0.04 l-0.04 0 c-0.2 -0.08 -0.28 -0.2 -0.28 -0.4 c-0.04 -0.16 -0.12 -0.32 -0.16 -0.52 c-0.04 -0.12 -0.04 -0.2 0.04 -0.28 c-0.08 -0.04 -0.2 -0.08 -0.24 -0.2 c0 0 -0.04 0 -0.04 -0.04 c0.04 -0.36 -0.28 -0.68 -0.28 -1.04 c0 -0.24 -0.12 -0.44 -0.08 -0.68 c0 -0.08 -0.12 -0.12 -0.12 -0.28 c0 -0.08 -0.12 -0.2 -0.04 -0.32 c0.04 -0.08 -0.12 -0.04 -0.12 -0.12 c0 -0.2 -0.12 -0.4 -0.12 -0.6 c-0.04 -0.28 -0.2 -0.52 -0.32 -0.76 c-0.04 -0.08 -0.08 -0.2 -0.24 -0.08 c-0.04 0.04 -0.16 0 -0.28 0 c-0.44 -0.04 -0.92 0.04 -1.4 -0.04 c-0.28 0 -0.56 0 -0.84 -0.04 c-0.36 0 -0.76 0 -1.12 0.04 c-0.28 0.04 -0.56 0.04 -0.84 -0.04 c-0.12 -0.04 -0.28 -0.04 -0.4 0 c-0.16 0.08 -0.28 0 -0.44 0.04 c-0.4 0 -0.84 0.12 -1.28 0.04 c-0.16 -0.04 -0.36 -0.08 -0.56 -0.08 c-0.44 0.04 -0.84 0.08 -1.28 0.12 c-0.12 0 -0.2 0.04 -0.28 0.04 c-0.24 -0.04 -0.28 0.12 -0.32 0.28 c-0.2 0.72 -0.44 1.4 -0.68 2.08 c-0.24 0.6 -0.52 1.2 -0.68 1.8 c-0.08 0.32 -0.16 0.64 -0.2 0.92 c-0.08 0.36 -0.2 0.64 -0.36 0.96 c-0.08 0.08 -0.16 0.2 -0.12 0.32 c0 0.04 0 0.12 -0.04 0.16 c-0.32 0.32 -0.68 0.56 -1.16 0.64 c-0.12 0 -0.24 0.04 -0.36 0.08 s-0.28 0 -0.44 0 c-0.08 0 -0.12 0 -0.16 0.04 c-0.16 0.04 -0.36 0.04 -0.56 0 z M17.52 28.439999999999998 c0.04 0.08 0.08 0.08 0.08 0 c0.04 -0.12 0.08 -0.12 0.16 -0.12 c0.24 -0.08 0.48 -0.08 0.68 -0.04 c0.08 0 0.2 -0.08 0.24 0 c0.04 0.04 0.04 0.16 0.12 0.12 s-0.04 -0.08 -0.04 -0.16 c0.04 -0.04 0 -0.12 0 -0.16 c-0.08 -0.48 -0.2 -0.88 -0.36 -1.32 c-0.12 -0.36 -0.2 -0.76 -0.32 -1.16 c-0.12 -0.32 -0.16 -0.68 -0.28 -1.04 c-0.12 -0.32 -0.2 -0.64 -0.32 -0.96 c-0.16 -0.32 -0.12 -0.72 -0.24 -1.04 c-0.08 -0.2 -0.16 -0.4 -0.2 -0.56 c0 -0.08 0 -0.16 -0.04 -0.24 c-0.24 -0.28 -0.28 -0.64 -0.32 -1 c0.04 -0.16 -0.12 -0.28 -0.12 -0.44 c-0.12 -0.68 -0.36 -1.36 -0.68 -2 c-0.04 -0.08 -0.08 -0.16 -0.08 -0.24 c0 -0.04 0 -0.08 -0.04 -0.08 c-0.08 0 -0.04 0.04 -0.08 0.08 c-0.16 0.4 -0.2 0.84 -0.36 1.28 c-0.08 0.12 -0.2 0.2 -0.2 0.36 c0.04 0.04 -0.04 0.12 0 0.24 c0 0.04 0.04 0.08 0 0.12 c-0.16 0.12 -0.16 0.28 -0.16 0.48 c-0.12 0.36 -0.24 0.76 -0.4 1.12 c-0.12 0.36 -0.24 0.76 -0.32 1.12 c-0.16 0.6 -0.44 1.16 -0.6 1.76 c-0.12 0.44 -0.24 0.92 -0.4 1.36 c-0.28 0.64 -0.36 1.36 -0.64 2 c-0.08 0.2 0 0.32 0.24 0.28 c0.04 0 0.12 -0.04 0.08 0.04 c0 0.12 0.08 0.08 0.12 0.08 c0.24 -0.08 0.44 -0.12 0.64 0 c0.04 0 0.08 0.04 0.08 -0.04 c0 -0.12 0.12 -0.08 0.16 -0.04 c0.28 0.08 0.52 0 0.8 0 c0.24 -0.04 0.48 0.08 0.72 -0.04 l0.08 0.08 s0.16 0 0.2 0.08 c0.08 -0.16 0.16 -0.16 0.32 -0.12 c0.08 0.04 0.2 0 0.28 -0.04 s0.12 -0.04 0.12 0.08 c0 0.04 -0.04 0.08 0 0.08 c0.08 0.04 0.08 -0.04 0.12 -0.08 c0.08 -0.04 0.12 -0.16 0.24 0 c0.08 0.08 0.28 0.08 0.32 0.04 c0.2 -0.16 0.32 -0.04 0.4 0.12 z"></path></g></svg>